<?xml version="1.0" encoding="utf-8"?>
<!-- Generator: Adobe Illustrator 26.1.0, SVG Export Plug-In . SVG Version: 6.00 Build 0)  -->
<svg version="1.1" id="Layer_1" xmlns="http://www.w3.org/2000/svg" xmlns:xlink="http://www.w3.org/1999/xlink" x="0px" y="0px"
	 viewBox="0 0 71.83 67.34" style="enable-background:new 0 0 71.83 67.34;" xml:space="preserve">
<style type="text/css">
	.st0{fill:none;stroke:#000000;stroke-width:0.5669;stroke-miterlimit:10;}
	.st1{font-family:'MyriadPro-Regular';}
	.st2{font-size:2px;}
	.st3{fill:none;}
</style>
<rect x="11.46" y="21.91" transform="matrix(-0.7071 0.7071 -0.7071 -0.7071 78.1761 47.1634)" class="st0" width="35.72" height="35.72"/>
<rect x="15.15" y="25.6" transform="matrix(-0.7071 0.7071 -0.7071 -0.7071 78.176 47.1634)" class="st0" width="28.35" height="28.35"/>
<rect x="4.74" y="16.61" transform="matrix(-0.7071 0.7071 -0.7071 -0.7071 25.6724 25.4157)" class="st0" width="5.67" height="2.83"/>
<text transform="matrix(-0.7071 0.7071 -0.7071 -0.7071 8.3836 16.5309)" class="st1 st2">LED</text>
<rect x="63.62" y="1.22" transform="matrix(-0.7071 0.7071 -0.7071 -0.7071 113.8944 -39.0683)" class="st0" width="2.83" height="5.67"/>
<rect x="64.32" y="2.82" transform="matrix(0.7071 -0.7071 0.7071 0.7071 16.1826 47.1766)" class="st3" width="1.43" height="2.46"/>
<text transform="matrix(-0.7071 -0.7071 0.7071 -0.7071 66.4084 4.4273)" class="st1 st2">PD</text>
</svg>
